<?xml version="1.0" standalone="no"?>
<!DOCTYPE svg PUBLIC "-//W3C//DTD SVG 20010904//EN"
 "http://www.w3.org/TR/2001/REC-SVG-20010904/DTD/svg10.dtd">
<svg version="1.0" xmlns="http://www.w3.org/2000/svg"
 width="640.000000pt" height="640.000000pt" viewBox="0 0 640.000000 640.000000"
 preserveAspectRatio="xMidYMid meet">
<metadata>
Created by potrace 1.14, written by Peter Selinger 2001-2017
</metadata>
<g transform="translate(0.000000,640.000000) scale(0.100000,-0.100000)"
fill="#000000" stroke="none">
<path d="M603 6384 c-78 -17 -196 -65 -260 -106 -26 -18 -84 -68 -128 -113
-64 -65 -91 -101 -128 -176 -90 -181 -82 107 -82 -2789 0 -2427 1 -2569 18
-2630 64 -235 233 -427 454 -515 144 -58 -14 -55 2725 -55 2717 1 2581 -2
2718 53 103 42 172 89 260 177 95 96 152 191 192 320 l23 75 2 2550 c1 2394 0
2555 -16 2631 -62 290 -301 522 -594 579 -106 21 -5090 20 -5184 -1z"/>
</g>
</svg>
